<svg width="512" height="512" viewBox="0 0 512 512" fill="none" xmlns="http://www.w3.org/2000/svg">
<g clip-path="url(#clip0)">
<path d="M329.21 269.349L375.848 158.874C377.459 155.058 375.672 150.658 371.857 149.048C368.044 147.436 363.642 149.224 362.031 153.04L320.477 251.471C317.589 245.112 256.279 110.117 253.414 103.81L418.917 18.2891L375.661 120.754C374.05 124.57 375.837 128.97 379.653 130.58C383.468 132.191 387.867 130.403 389.479 126.588L435.75 16.9802C440.185 6.47469 429.045 -3.82383 418.917 1.40393L240.194 93.7576C238.657 94.5536 237.392 95.9135 236.715 97.5324L188.62 212.835L169.02 188.519L169.019 188.518C166.692 185.632 163.232 183.978 159.527 183.978H64.172C60.8702 183.978 57.9043 186.185 56.9723 189.378L31.4265 276.963C29.9306 282.094 31.9085 287.538 36.3503 290.51C40.7721 293.471 46.5588 293.251 50.7506 289.899L85.071 262.443L127.247 365.646C128.046 367.643 129.877 369.395 132.232 370.049L230.969 396.737C234.964 397.813 239.085 395.452 240.166 391.455C241.247 387.456 238.882 383.339 234.883 382.258L155.236 360.729L315.977 280.892C317.915 287.72 352.228 408.631 353.87 414.42L268.845 391.438C264.851 390.361 260.73 392.721 259.649 396.72C258.568 400.719 260.933 404.836 264.932 405.917L358.646 431.249L372.208 479.037C373.373 483.134 376.513 486.274 380.609 487.435L465.521 511.524C470.494 512.935 475.673 511.145 478.713 506.963C481.752 502.78 481.858 497.304 478.982 493.008L329.21 269.349ZM148.844 347.158L197.612 230.241V230.24L243.929 119.2C247.022 126.012 307.81 259.856 310.902 266.666L299.001 272.578L148.844 347.158ZM158.185 198.978L182.049 228.584C181.527 229.834 135.45 340.305 134.26 343.158L75.3385 198.978H158.185ZM48.3107 272.642L65.3559 214.202L79.1553 247.968L48.3107 272.642ZM386.208 473.434C384.341 466.854 342.924 320.91 340.894 313.756L462.27 495.012L386.208 473.434Z" fill="#5E7CE2"/>
</g>
<defs>
<clipPath id="clip0">
<rect width="512" height="512" fill="white"/>
</clipPath>
</defs>
</svg>
